<svg width="20" height="18" viewBox="0 0 20 18" fill="none" xmlns="http://www.w3.org/2000/svg">
<path d="M2.5 12V14C2.5 15.054 3.45 16 4.5 16H7.5V18H4.5C3.43913 18 2.42172 17.5786 1.67157 16.8284C0.921427 16.0783 0.5 15.0609 0.5 14V12H2.5ZM15.5 7L19.9 18H17.745L16.544 15H12.454L11.255 18H9.101L13.5 7H15.5ZM14.5 9.885L13.253 13H15.745L14.5 9.885ZM0.5 0H6.5C7.07904 0.0002061 7.64564 0.167979 8.13144 0.483072C8.61724 0.798166 9.00147 1.24711 9.23776 1.77574C9.47406 2.30437 9.55232 2.89009 9.46311 3.46221C9.3739 4.03433 9.12102 4.56841 8.735 5C9.12102 5.43159 9.3739 5.96567 9.46311 6.53779C9.55232 7.10991 9.47406 7.69563 9.23776 8.22426C9.00147 8.75288 8.61724 9.20183 8.13144 9.51693C7.64564 9.83202 7.07904 9.99979 6.5 10H0.5V0ZM6.5 6H2.5V8H6.5C6.76522 8 7.01957 7.89464 7.20711 7.70711C7.39464 7.51957 7.5 7.26522 7.5 7C7.5 6.73478 7.39464 6.48043 7.20711 6.29289C7.01957 6.10536 6.76522 6 6.5 6ZM14.5 0C15.5609 0 16.5783 0.421427 17.3284 1.17157C18.0786 1.92172 18.5 2.93913 18.5 4V6H16.5V4C16.5 3.46957 16.2893 2.96086 15.9142 2.58579C15.5391 2.21071 15.0304 2 14.5 2H11.5V0H14.5ZM6.5 2H2.5V4H6.5C6.76522 4 7.01957 3.89464 7.20711 3.70711C7.39464 3.51957 7.5 3.26522 7.5 3C7.5 2.73478 7.39464 2.48043 7.20711 2.29289C7.01957 2.10536 6.76522 2 6.5 2Z" fill="#F87F28"/>
</svg>
