<svg width="21" height="18" viewBox="0 0 21 18" fill="none" xmlns="http://www.w3.org/2000/svg">
<path d="M18.0117 6V2H2.01172V6H18.0117ZM18.0117 8H2.01172V16H18.0117V8ZM1.01172 0H19.0117C19.2769 0 19.5313 0.105357 19.7188 0.292893C19.9064 0.48043 20.0117 0.734784 20.0117 1V17C20.0117 17.2652 19.9064 17.5196 19.7188 17.7071C19.5313 17.8946 19.2769 18 19.0117 18H1.01172C0.746502 18 0.492148 17.8946 0.304612 17.7071C0.117076 17.5196 0.0117188 17.2652 0.0117188 17V1C0.0117188 0.734784 0.117076 0.48043 0.304612 0.292893C0.492148 0.105357 0.746502 0 1.01172 0ZM3.01172 9H6.01172V14H3.01172V9ZM3.01172 3H5.01172V5H3.01172V3ZM7.01172 3H9.01172V5H7.01172V3Z" fill="#F87F28"/>
</svg>
