<svg width="25" height="24" viewBox="0 0 25 24" fill="none" xmlns="http://www.w3.org/2000/svg">
<g clip-path="url(#clip0_25_2656)">
<path d="M16.0117 13L22.9757 17.062L20.0027 17.912L22.1277 21.593L20.3957 22.593L18.2707 18.913L16.0477 21.063L16.0117 13ZM14.0117 6H16.0117V8H21.0117C21.2769 8 21.5313 8.10536 21.7188 8.29289C21.9064 8.48043 22.0117 8.73478 22.0117 9V13H20.0117V10H10.0117V20H14.0117V22H9.01172C8.7465 22 8.49215 21.8946 8.30461 21.7071C8.11708 21.5196 8.01172 21.2652 8.01172 21V16H6.01172V14H8.01172V9C8.01172 8.73478 8.11708 8.48043 8.30461 8.29289C8.49215 8.10536 8.7465 8 9.01172 8H14.0117V6ZM4.01172 14V16H2.01172V14H4.01172ZM4.01172 10V12H2.01172V10H4.01172ZM4.01172 6V8H2.01172V6H4.01172ZM4.01172 2V4H2.01172V2H4.01172ZM8.01172 2V4H6.01172V2H8.01172ZM12.0117 2V4H10.0117V2H12.0117ZM16.0117 2V4H14.0117V2H16.0117Z" fill="#F87F28"/>
</g>
<defs>
<clipPath id="clip0_25_2656">
<rect width="24" height="24" fill="white" transform="translate(0.0117188)"/>
</clipPath>
</defs>
</svg>
